<svg id="happy_unset" xmlns="http://www.w3.org/2000/svg" viewBox="0 0 672 672"><defs><style>.cls-1{fill:none;stroke:#000;stroke-miterlimit:10;stroke-width:18px;}</style></defs><path d="M970,180a320,320,0,1,1-124.94,25.22A319,319,0,0,1,970,180m0-15c-185.57,0-336,150.43-336,336S784.43,837,970,837s336-150.43,336-336S1155.57,165,970,165Z" transform="translate(-634 -165)"/><circle cx="255.5" cy="206.5" r="37.5"/><circle cx="425.5" cy="206.5" r="37.5"/><path class="cls-1" d="M757.81,565.7c34.94,79,111.24,132.43,197.11,137.84,94.28,6,184.22-47,225.25-133.18" transform="translate(-634 -165)"/></svg>